<?xml version="1.0" encoding="utf-8" ?>	<!-- Generator: Assembly 2.2 - http://assemblyapp.co -->	<svg version="1.1" xmlns="http://www.w3.org/2000/svg" xmlns:xlink="http://www.w3.org/1999/xlink" width="2048.00" height="2048.00" viewBox="0 0 2048.0 2048.0">		<g id="document" transform="matrix(1,0,0,1,1024.0,1024.0)">			<path d="M-177.349,-623.151 C-101.851,-627.696 -44.4117,-692.493 -48.9562,-767.991 C-53.5008,-843.49 -118.298,-900.929 -193.796,-896.384 C-269.295,-891.84 -326.734,-827.043 -322.189,-751.544 C-317.645,-676.046 -252.848,-618.607 -177.349,-623.151 Z " fill="#ffffff" fill-opacity="1.00" />			<path d="M382.606,-457.271 C458.105,-461.816 515.544,-526.613 510.999,-602.111 C506.454,-677.61 441.658,-735.049 366.159,-730.504 C290.661,-725.96 233.222,-661.163 237.766,-585.664 C242.311,-510.166 307.108,-452.727 382.606,-457.271 Z " fill="#ffffff" fill-opacity="1.00" />			<path d="M-225.297,324.553 C-149.798,320.008 -92.3595,255.211 -96.904,179.713 C-101.449,104.214 -166.245,46.775 -241.744,51.3196 C-317.243,55.8642 -374.681,120.661 -370.137,196.16 C-365.592,271.658 -300.796,329.097 -225.297,324.553 Z " fill="#ffffff" fill-opacity="1.00" />			<path d="M-221.123,112.213 L-262.181,245.365 C76.2459,249.254 396.695,46.7114 522.576,-243.44 C544.273,-293.45 517.884,-229.338 522.576,-243.44 C527.269,-257.543 563.041,-349.859 563.711,-408.189 C565.052,-524.85 524.931,-589.951 499.968,-619.029 C453.925,-672.663 424.321,-626.337 408.981,-597.203 C446.888,-574.301 417.94,-581.695 425.094,-546.82 C432.248,-511.946 441.188,-405.255 435.213,-378.713 C406.591,-251.571 293.539,-119.327 209.823,-56.4191 C97.821,27.7452 -39.7249,114.297 -221.123,112.213 Z " fill="#ffffff" fill-opacity="1.00" />			<path d="M-201.041,135.433 L-192.305,280.56 C-467.299,83.2621 -625.949,-226.487 -555.539,-534.832 C-543.403,-587.977 -560.11,-520.69 -555.539,-534.832 C-550.968,-548.974 -525.118,-644.545 -491.113,-691.942 C-423.101,-786.736 -324.432,-818.435 -287.096,-827.081 C-218.232,-843.029 -249.601,-785.164 -254.495,-752.603 C-298.602,-756.6 -257.298,-729.774 -283.716,-705.91 C-310.135,-682.047 -394.126,-617.014 -405.03,-592.089 C-457.267,-472.692 -443.526,-311.951 -403.125,-177.802 C-394.561,-149.365 -353.874,-68.4275 -312.332,-15.6099 C-264.693,44.9587 -215.387,77.5621 -202.925,104.132 C-174.99,163.693 -281.361,77.8063 -201.041,135.433 Z " fill="#ffffff" fill-opacity="1.00" />			<path d="M-229.371,257.296 L-347.502,166.264 C-366.958,364.188 -336.651,629.047 -252.248,730.321 C-130.868,875.961 93.3703,886.55 307.191,873.679 L341.754,871.598 L334.979,759.036 C314.238,756.198 226.326,765.576 259.694,763.568 C382.713,756.163 175.957,764.856 127.108,755.612 C82.5467,747.179 38.6023,752.417 -1.50145,737.225 C-23.5031,728.89 -64.641,715.038 -96.9259,693.311 C-126.32,673.529 -147.37,646.086 -159.562,632.448 C-230.02,553.634 -222.068,378.618 -229.371,257.296 Z " fill="#ffffff" fill-opacity="1.00" />			<path d="M519.586,908.55 C578.453,863.416 589.598,779.009 544.463,720.142 C499.328,661.276 414.922,650.131 356.055,695.265 C297.188,740.4 289.243,822.354 334.377,881.22 C379.512,940.087 460.719,953.685 519.586,908.55 Z M445.728,787.448 C447.913,789.714 469.106,802.129 455.178,820.35 C441.25,838.57 418.154,819.583 416.387,814.158 C414.619,808.733 416.517,791.568 423.247,788.34 C429.978,785.112 443.544,785.183 445.728,787.448 Z " fill="#ffffff" fill-opacity="1.00" />		</g>	</svg>